<?xml version="1.0" encoding="utf-8"?>
<!-- Generator: Adobe Illustrator 19.0.0, SVG Export Plug-In . SVG Version: 6.00 Build 0)  -->
<svg version="1.1" id="Layer_1" xmlns="http://www.w3.org/2000/svg" xmlns:xlink="http://www.w3.org/1999/xlink" x="0px" y="0px"
	 viewBox="0 0 960 560" style="enable-background:new 0 0 960 560;" xml:space="preserve">
<style type="text/css">
	.st0{fill:#FEFEFE;}
	.st1{fill:#7EAF35;}
	.st2{fill:#EDEDED;}
	.st3{fill:#BFDC7F;}
	.st4{fill:#DCC3A5;}
	.st5{fill:#E5D5BF;}
	.st6{fill:#EB514B;}
	.st7{fill:#EF7A78;}
	.st8{fill:#E3A562;}
	.st9{fill:#F99E99;}
	.st10{fill:#EC2719;}
	.st11{fill:#FEBE43;}
	.st12{fill:#F83A2C;}
	.st13{fill:#C90707;}
	.st14{fill:#E16E14;}
</style>
<g>
	<path class="st0" d="M325.8,425.1c0-4.4,0-8.8,0-13.1c3.3-0.5,6.8,1.3,9.9-0.9c1.1,0,2.2,0,3.3,0c0.6,0,1.2,0,1.9,0.1
		c0,4.7,0,9.4,0,14c0,0,0,0,0,0C335.8,425.1,330.8,425.1,325.8,425.1z"/>
	<path class="st1" d="M355.4,424.8c-1.4,0.9-2.4,0.2-3.3-0.9c0,0-0.2,0.1-0.2,0.1c-0.1-0.8-0.1-1.8-1.3-1.9
		c-1.7-1.4-0.9-3.2-0.7-4.9c1.5-3.4-1.3-1.6-2.3-1.9l-0.2-0.2c0-0.7,0-1.3,0-2c0-1.4,0-2.7,0-4.1c1.4-4.4,2.7-8.9,4.1-13.3
		c2.2,0.3,4.2,0.7,6.5,0.4c4.1-0.5,8.4-0.9,12.6,0.5c0.7,0.7,1.4,1.5,2.1,2.2c0.4,3.1,0.7,6.2,1.1,9.3c-2,1.6-3.5,3.5-4.2,6
		c-3-1.2-6-2.3-6.2,2.8c-2.7,2.7-5.4,5.3-8.1,8L355.4,424.8z"/>
	<path class="st0" d="M355.5,424.9c2.7-2.7,5.4-5.3,8.1-8c2.4,0.4,4.5-0.1,6.2-1.8c2,3.2,0.5,6.7,1,10c0,0,0,0,0,0
		C365.7,425,360.6,425,355.5,424.9z"/>
	<path class="st0" d="M310.8,388.2c-0.1,7.6,0.8,6.8-7,6.9c-2.7,0-5.3,0-8,0c0-5,0-10,0-15c0,0,0,0,0,0c2.7,0,5.4-0.1,8.1-0.1
		c2.2,1.3,4.8,1,7.7,1.4C309.2,383.8,306.7,385.9,310.8,388.2z"/>
	<path class="st1" d="M310.8,388.2c-4-2.3-1.6-4.4,0.8-6.8c-3-0.3-5.5-0.1-7.7-1.4c0-0.6,0-1.2,0-1.8c1.7-1.7,5.3-0.2,6.5-3.7
		c-3.9-0.3-7.1-1.4-9.9-3.5c0.1-3.2-3.1-2.1-4.5-3.3c-0.7-0.7-1.4-1.4-0.9-2.5c1.8-0.5,3.5-1,5.3-1.4c2.1,0.5,3.6-1.1,5.4-1.7
		c0.6,5-5,1.7-6.2,4.9c3.8-0.2,7.4,0.2,11.6-1.5c-1.7-1.7-4.5-1.4-5.4-3.4c-0.9-1.3-0.1-1.9,0.9-2.7c1.3-0.9,1.3-2.3,0.2-3.4
		c-2.1-2.1-4-4.2-4.8-7.1c-0.6-1.3-1.4-2.6-1.7-3.9c-0.6-2.6-1.7-5.1,3.3-4.5c1.8,0.2,3.6,2.1,3.9,1.6c2.9-5.2,3.7,0.6,5.4,0.9
		c0.6,1.1,1.9,1.7,1.8,3.3c-0.2,5.5,1.8,10.7,3.2,15.9c0.8,3.1,1.4,7.5,2.7,8.9c3.3,3.5,6.1,7.3,9,11c-2.7,3.1-6.6,4.7-9.8,7.1
		c-1.1,0.2-2.7,1.6-2.9-1c0.2-0.2,0.5-0.6,0.5-0.6c-0.3-0.5-0.7-0.3-1.1,0C314.5,387.8,312.6,388,310.8,388.2z"/>
	<path class="st2" d="M296,367.7c1.4,1.2,4.5,0.1,4.5,3.3c-1.2,0.3-3.7-0.3-1.5,2.2c1.5,1.7,3.2,3.3,4.9,5c0,0.6,0,1.2,0,1.8
		c-2.7,0-5.4,0.1-8.1,0.1C295.8,375.9,295.9,371.8,296,367.7z"/>
	<path class="st3" d="M305.8,362.1c-1.8,0.6-3.3,2.1-5.4,1.7c-0.2-0.5-0.5-1.1-0.7-1.6c-1.4-0.8-2.8-1.6-4.4-2.5
		c1-0.7,1.9-1.3,2.8-2c-2.5-2.9-4.5-0.9-6.4,0.5c-3.6-1.6-5.4-4.9-7.2-8.1c2.6-2.5,5.3-5,8.8-1.2c1.7,1.8,1.4-1.3,2.4-1
		c2.3-1,3.8,3.5,6.4,1c0.9,2.9,2.8,5,4.8,7.1c1.1,1.1,1.1,2.4-0.2,3.4C305.6,360.1,304.9,360.8,305.8,362.1L305.8,362.1z"/>
	<path class="st1" d="M291.8,358.1c2-1.4,3.9-3.4,6.4-0.5c-0.9,0.6-1.8,1.3-2.8,2c1.6,0.9,3,1.7,4.4,2.5c-2.2-0.1-4.3,0.1-6.4-0.2
		C291.2,361.5,289.9,360.4,291.8,358.1z"/>
	<path class="st3" d="M310.8,404.6c-0.4-0.3-0.7-0.6-1.1-1c2.1-3.6,12.5-8.1,17.1-7.4c1.8,0.3,2.4,1.9,3.4,2.8
		c2.9,2.7,2.3,7.7,6.6,9c0.2,1.2-0.6,2-1.2,2.9c-3.1,2.3-6.6,0.5-9.9,0.9c-1.6,0-3.1-0.1-4-1.9c0.3-3.1,0-5.4-4.2-4.2
		c-1,0.3-3.1,0.9-3.4-0.8C313.4,401.2,311.9,405.2,310.8,404.6z"/>
	<path class="st0" d="M310.8,404.6c1,0.6,2.5-3.4,3.3,0.5c0.4,1.8,2.4,1.1,3.4,0.8c4.2-1.2,4.5,1.1,4.2,4.2c-3.7,0-7.3,0-11,0
		C310.8,408.3,310.8,406.4,310.8,404.6z"/>
	<path class="st4" d="M347.6,409c-2.5,0-4.8,0.6-6.9,2c-0.6,0-1.2,0-1.9-0.1c-0.4-1-0.7-2-1.1-2.9c2.7-2.2,5.7-4.2,7.9-6.8
		c1.9-2.2,5.3-3.5,5.1-7.2c0.8,0.3,1,0.9,0.9,1.7C350.4,400.2,349,404.6,347.6,409z"/>
	<path class="st2" d="M337.8,408.1c0.4,1,0.7,2,1.1,2.9c-1.1,0-2.2,0-3.3,0c0.6-0.9,1.4-1.7,1.2-2.9
		C337.2,408.1,337.5,408.1,337.8,408.1z"/>
	<path class="st5" d="M351.7,395.7c0.1-0.8-0.2-1.4-0.9-1.7c-3.2-1-6.3-2.1-9-4c1.3-0.3,2.6-0.9,0.6-2c-2.1-1.2-4.1-2.8-6.8-2.9
		c0,0,0.1,0,0.1,0c-0.7-1.1-1.2-3-3-1c-1-0.7-2.1-1.3-3.1-2c-3-3.7-5.7-7.5-9-11c-1.3-1.4-1.9-5.8-2.7-8.9
		c-1.4-5.2-3.4-10.4-3.2-15.9c0.1-1.6-1.2-2.2-1.8-3.3c1.1-1.1,1.9-2.3,1.8-3.9c0.3-0.1,0.5-0.2,0.8-0.2c1.6,2.1,2.7,3.9,5.9,1.1
		c1-0.9,2.5-4.2,5.3-3c0.5,0.7,1.1,1,1.9,0.8c0.1,0,0.2-0.2,0.2-0.4c-0.7-0.1-1.4-0.3-2.2-0.4c0.1-1.4-0.5-3,1-4l0,0
		c1.6,2,4.1,2,6.2,2.9c5.6,2.4,11.7,3.9,16.6,8c-1.8,2.2-3.4-0.6-5.2,0.8c4.5,2.3,9.8,3.1,11.8,8.2c-0.6,0.1-1.5,0.3-3.2,0.6
		c2.8,0.8,4.8,1.3,7.1,2c-1.8,1.8-1,4.8-3.4,6c1,1.8,3.4-0.8,4,1.5c0.9,3.6-1.9,5-4.9,6.2c4,2.1,8.1-0.5,12.1,2.6
		c-3.4,0.3-4,3.9-7.3,3.9c2.6-0.3,3.6,3,6.2,2.4l0,0c0.7,2.3-3.4,2.9-2.4,3.8c2.3,2.1,0.3,2.4-0.7,3.2c-1.4,1.2-2.8,2.3-4.8,3.9
		c4.9-0.4,9.3,4.9,13.3-0.8c11.2-2.1,18.3-10.5,26.7-16.9c0.8-0.6-0.1-1.1-0.8-1.2c-1.8-3.1-5.9-5.4-3.4-10c0.8,4.1,4.1,5.8,7.5,5.4
		c2.3-0.3,5.7-1,6.5-4.3l0-0.1c0.8,0.5,1.3,2.2,2.8,1c0.2,0.7,0.3,1.3,0.5,2c-0.1,1.3-0.2,2.6-0.3,3.9c-1.3,2.6-2.7,5.1-3,8
		c-2.6,1.3-3.8,4.4-6.8,5.1c-0.3-1.2,0.3-3-1.4-3.4c-1.4-0.4-1.6,1.4-2.5,2.1c-2,1.7-4.2,2.9-6.7,3.8c-2.6,1-5.1,2.2-5.7,5.4
		c-1.2,0.2-2.9-0.5-3.1,1.7c1.4,0.1,2.4-0.6,3.2-1.6c2.9,0.4,4.9-3.6,8.1-1.9c-1.2,2.1-3.8,2.2-5.3,3.9c-6.3,1.9-12.5,3.7-18.8,5.6
		c-4.1-1.4-8.4-1-12.6-0.5C355.9,396.4,353.9,396,351.7,395.7z M324.8,360.1c-2.1,0.2-2.2,1.4-1.5,3c0.5,1.3,1,2.6,1.5,4
		c-0.1,0.1-0.2,0.3-0.2,0.4c0.1-0.1,0.1-0.3,0.2-0.4c3.3,5.3,6.2,11.2,13.7,12.7c-0.5-2.6-4.9-2.3-2.8-5.4c1.8-2.7,0.8-3.9-1.8-4.8
		c-1.1-0.4-2.1-1.1-2.1-2.5c1-0.2,1.6-0.4,1.6-1.8c0.2-4.5-4.1-5.5-6.2-8.1c-1.1-1.3-2.6-4.2-4.6-2.4c-1.6,1.4,1.5,2.4,1.9,3.9
		C324.6,359.1,324.7,359.6,324.8,360.1z M358.6,375.4c-2.2-0.2-3.6-0.9-4.8,0.4C355.2,376.2,356.4,376.3,358.6,375.4z M341.1,380.1
		c-0.3,0.4-0.8,0.7-0.8,1c0,0.3,0.5,0.8,0.8,0.8c0.6,0.1,1.3-0.1,1.1-1C342.2,380.6,341.6,380.4,341.1,380.1z M405.5,376.3
		c0-0.1,0-0.3,0.1-0.4c-0.2,0-0.4,0.1-0.5,0.1c0,0.1,0.1,0.3,0.1,0.3C405.2,376.4,405.3,376.3,405.5,376.3z"/>
	<path class="st4" d="M369.8,414.1c0,0.3,0,0.6,0,1c-1.7,1.7-3.8,2.2-6.2,1.8C363.8,411.8,366.8,413,369.8,414.1z"/>
	<path class="st4" d="M350.1,417.2c-0.8-0.6-1.6-1.3-2.3-1.9C348.8,415.6,351.6,413.8,350.1,417.2z"/>
	<path class="st4" d="M347.6,415.1c-1-0.7-0.8-1.3,0-2C347.6,413.8,347.6,414.4,347.6,415.1z"/>
	<path class="st0" d="M352,424c-1-0.3-1.2-1.1-1.3-1.9C351.9,422.2,351.9,423.2,352,424z"/>
	<path class="st1" d="M341.8,390c2.7,2,5.8,3.1,9,4c0.2,3.7-3.1,5.1-5.1,7.2c-2.3,2.6-5.3,4.5-7.9,6.8c-0.3,0-0.7,0-1,0
		c-4.3-1.3-3.7-6.4-6.6-9c-1-0.9-1.6-2.5-3.4-2.8c-4.6-0.7-14.9,3.8-17.1,7.4c-1.4-0.6-3.7-0.3-3.7-2.5c0-1.7,2.1-2.1,3.3-2.5
		c4.3-1.3,7-5.3,11.2-6.7c2,0.4,3.3-0.3,4.4-2.2c1.7-3,4.4-4.7,7.9-5c1-0.1,1.7,1.2,2.8,0.4c0,0-0.1,0-0.1,0
		C336.4,388.5,339.5,388.8,341.8,390z"/>
	<path class="st3" d="M332.9,384.8c-3.5,0.3-6.2,2.1-7.9,5c-1.1,1.8-2.3,2.6-4.4,2.2c-0.3-0.9-0.6-1.8-0.8-2.7
		c3.3-2.4,7.1-4,9.8-7.1c1,0.7,2.1,1.3,3.1,2C332.8,384.3,332.9,384.5,332.9,384.8z"/>
	<path class="st1" d="M350.3,247.2c-2.9,0.8-5.8,1.2-7.7-2c-1.9-0.9-4-1.5-4.9-3.7c-0.5-0.4-1.1-0.8-1.6-1.2
		c-2.1,0.2-3.1-1.4-4.2-2.7c-9-4.9-14.2-12.5-16-22.5c-1.6-4.9-2.9-9.8-2.9-15c0.3-5.4-1.2-10.9,1.8-16c1.1-2.9,1.8-6.2,3.5-8.7
		c1.4-2-0.4-2.7-0.6-4c-0.9,0-1.8,0-2.8-0.1c-1.1-0.3-2.3,0.1-2.5,1.1c-0.9,4.3-3.8,8.1-3.7,12.7c-0.6,4-1.2,8-1.7,12
		c0,6,0,12-0.1,18c0.6,6,2.7,12,1,18.2c-0.8,3.9-1.6,7.8-2.4,11.7c-0.4,3-1.1,6.1-0.5,9.2c0,1.9,0,3.9,0,5.8c1,0.4,0.8,1.3,1,2.1
		c2.1-1.8,3.9-4,7.5-4.3c-1.5,2.8-3.2,5.3-2.7,8.4c4.5-1.4,9.7-1.2,13.2-5.1c-1.6-0.5-4.4,0.8-4-2.7c0.3-2.2,2.2-2.1,3.7-2.5
		c0.3,2,3.6,2.4,2.8,5.1c3.4,1,3.4-3.5,6-3.8c2-1.4,4.1-2.8,6.1-4.2c0.8-1,1.9-1.1,3-0.9c1.3-0.2,2.7-0.5,4-0.7
		c1.6-0.4,3.2-0.9,4.8-1.3C350.5,249.1,350.4,248.2,350.3,247.2z"/>
	<path class="st3" d="M303.8,378.2c-1.6-1.7-3.3-3.2-4.9-5c-2.2-2.5,0.3-1.9,1.5-2.2c2.8,2.1,6,3.3,9.9,3.5
		C309.1,377.9,305.6,376.5,303.8,378.2z"/>
	<path class="st3" d="M305.8,362.1c0.9,2.1,3.7,1.7,5.4,3.4c-4.1,1.7-7.8,1.3-11.6,1.5C300.8,363.8,306.4,367,305.8,362.1
		C305.8,362.1,305.8,362.1,305.8,362.1z"/>
	<path class="st2" d="M316.3,387.6c0.4-0.3,0.8-0.5,1.1,0c0,0.1-0.3,0.4-0.5,0.6C316.7,388,316.5,387.8,316.3,387.6z"/>
	<path class="st1" d="M315.5,338.9c-0.3,0-0.6,0.1-0.8,0.2c0.1-2.6,0.1-5.3,0.2-7.9c2.1-1.7-0.1-3.3,0-5c2.4,0.6,3.9,3.3,6.8,2.8
		C320.9,333.1,316.2,334.8,315.5,338.9z"/>
	<path class="st4" d="M314.9,326.2c-0.1,1.7,2.1,3.4,0,5c-1.9-2.1-1.1-5.7-4-7.2c-0.4-1-0.7-1.9-1.1-2.9
		C312.6,321.6,314.1,323.6,314.9,326.2z"/>
	<path class="st6" d="M563.6,319c0.4,0,0.7,0,1.1,0c0,0.8,0,1.6-0.9,2.1c-0.2-0.2-0.3-0.3-0.5-0.5
		C563.4,320.1,563.5,319.5,563.6,319z"/>
	<path class="st4" d="M307.7,320.1c0.8,0,1.7,0.1,2.1,1C308.9,321.2,308.1,321,307.7,320.1z"/>
	<path class="st4" d="M306,319.9c0.7-1,1.3-0.7,1.8,0.2C307.2,320.1,306.6,320,306,319.9z"/>
	<path class="st4" d="M315.5,338.9c0.7-4.2,5.3-5.9,6.1-9.9c0.9-2.6,4.2-1,5.4-3.1c1,0.2,2,0.2,2.7-0.8c1-0.1,2-0.1,3-0.2
		c1,0,1.9,0,2.9,0.1c5.5,0.8,10.8,2.1,15.7,4.4c12.7,5.9,25.4,11.5,39.3,13.8c-2.1,1.8-4.6,1.6-7,0.9c-6.6-1.8-12.9,0.6-19.4,1
		c1.1,1,2.9,1.3,3.2,2.2c2.4,6.5,10.6,5,13.6,9.8c1.6,2.6,5.9,4,4.8,8.5c-0.4,1.6,0.7,4.5,3.6,2.6c2.6-1.6,4.5-1.3,6.3,1.1
		c0.8,1.1,2.1,0.8,3.2,0.8c0.7,0.1,1.5,0.6,0.8,1.2c-8.4,6.4-15.5,14.9-26.7,16.9c-4,5.7-8.4,0.4-13.3,0.8c2-1.6,3.4-2.7,4.8-3.9
		c1-0.8,3-1.1,0.7-3.2c-1-0.9,3.1-1.5,2.4-3.8c0.1-0.1,0.2-0.3,0.2-0.4c-0.1,0.1-0.2,0.3-0.2,0.4c-2.6,0.6-3.6-2.7-6.2-2.4
		c3.2,0,3.8-3.6,7.3-3.9c-4-3.1-8.1-0.5-12.1-2.6c3.1-1.2,5.9-2.6,4.9-6.2c-0.6-2.3-3,0.3-4-1.5c2.4-1.2,1.6-4.2,3.4-6
		c-2.4-0.7-4.4-1.2-7.1-2c1.7-0.3,2.7-0.5,3.2-0.6c-2-5.1-7.3-5.9-11.8-8.2c1.8-1.4,3.4,1.4,5.2-0.8c-4.9-4.1-11-5.5-16.6-8
		c-2.1-0.9-4.6-0.9-6.2-2.9c3.8,0.4,7.3,1.9,10.7,3.4c1,0.5,1.9,0.5,2.6-0.5c0.2-0.3,0.3-1.1,0-1.3c-1.8-1.4-5.2-0.8-4.9-4.5
		c-3,0.5-6.6-0.6-8.5,2.9c-1.5,1.1-0.9,2.6-1,4l0,0c-2.9-1.2-4.3,2.1-5.3,3C318.2,342.8,317.1,341.1,315.5,338.9z"/>
	<path class="st7" d="M322.8,319.9c-0.1-2.1,2.4-2.1,2.8-3.7c2.7,2.4,4.9,4.9,4.1,8.9c-0.7,1-1.7,1-2.7,0.8
		C325.7,323.9,324.2,321.9,322.8,319.9z"/>
	<path class="st6" d="M553.6,316.9c0.1,1.5-0.6,2.2-2.1,2C551.7,317.7,552.5,317.1,553.6,316.9z"/>
	<path class="st2" d="M562.7,288.2c-0.2-0.4-0.4-0.7-0.6-1.1C562.3,287.5,562.5,287.8,562.7,288.2z"/>
	<path class="st1" d="M310,266.9c-2.1,1.1-4.2,2.2-6.3,3.3c-3.5-3.9-0.1-5.8,2.3-8.1c2.1-1.8,3.9-4,7.5-4.3
		c-1.5,2.8-3.2,5.3-2.7,8.4c0,0,0-0.1,0-0.1C310.5,266.3,310.3,266.6,310,266.9z"/>
	<path class="st8" d="M390.8,343.2c2.6,0,5.3,0.1,7.9,0.1c-1.3,2.1-3.5,3.8-2.8,6.7l-0.4,0.2c-2.3,0.4-5.2-1.8-7.4,1.8
		c3-0.5,4.6,0.9,5.6,3.1c0.1,1.9,2.7,2.8,2,5c-2.5,4.6,1.6,6.9,3.4,10c-1.1,0-2.4,0.3-3.2-0.8c-1.8-2.3-3.7-2.7-6.3-1.1
		c-2.9,1.8-4-1.1-3.6-2.6c1.1-4.5-3.2-5.9-4.8-8.5c-2.9-4.8-11.1-3.3-13.6-9.8c-0.3-0.9-2.1-1.2-3.2-2.2c6.5-0.4,12.8-2.8,19.4-1
		C386.2,344.7,388.6,344.9,390.8,343.2z"/>
	<path class="st4" d="M395.7,360.1c0.7-2.2-1.9-3.1-2-5c0,0,0,0,0,0c2.7-0.1,1.4-1.7,1.1-2.9c0.7-0.5,0.9-1.2,0.8-1.9
		c0,0,0.4-0.2,0.4-0.2c2.8-0.7,6.7-4.1,8-2.1c2.1,3.3,4.4,2.1,6.8,2.4c5.3,3.2,3.1,7.5,1.9,11.8c-1.5,1.2-1.9-0.5-2.8-1
		c-0.2-1.2-0.5-2.3-2.1-1.8c-0.3,0.1-0.7,0.9-0.5,1.1c0.6,0.9,1.7,0.7,2.6,0.8c-0.9,3.4-4.2,4.1-6.5,4.3
		C399.9,365.9,396.6,364.2,395.7,360.1z M409.3,357.4c0.1-0.3,0.4-0.5,0.4-0.8c0-0.3-0.2-0.5-0.3-0.8c-0.2,0.3-0.5,0.6-0.5,0.9
		C408.8,356.9,409.1,357.1,409.3,357.4z"/>
	<path class="st2" d="M331.8,367.1c0,1.4,0.9,2.1,2.1,2.5c2.6,0.9,3.6,2.1,1.8,4.8c-2.1,3.1,2.3,2.8,2.8,5.4
		c-7.5-1.5-10.4-7.3-13.7-12.7l0,0c-0.5-1.3-0.9-2.7-1.5-4c-0.7-1.6-0.6-2.8,1.5-3l0,0c0,0.8,0.2,1.6,1,2l0,0c0,1.3,0.7,2,2,2l0,0
		c0.3,0.3,0.7,0.7,1,1c0,0,0,0,0,0c0.3,0.3,0.7,0.7,1,1l0,0C330.2,366.9,330.9,367.1,331.8,367.1L331.8,367.1z"/>
	<path class="st2" d="M324.8,360.1c-0.1-0.5-0.2-1-0.3-1.5c-0.4-1.5-3.5-2.6-1.9-3.9c2-1.7,3.5,1.1,4.6,2.4c2.1,2.6,6.4,3.6,6.2,8.1
		c-0.1,1.4-0.6,1.7-1.6,1.8c0,0,0,0,0,0c-0.4-0.8-1.2-1-2-1c0,0,0,0,0,0c-0.3-0.3-0.7-0.7-1-1c0,0,0,0,0,0c-0.3-0.3-0.7-0.7-1-1
		c0,0,0,0,0,0c0-1.3-0.7-2-2-2c0,0,0,0,0,0C325.8,361.2,325.6,360.5,324.8,360.1L324.8,360.1z"/>
	<path class="st4" d="M394.9,387.2c-3.2-1.6-5.2,2.3-8.1,1.9l-0.1-0.1c0.6-3.2,3.1-4.4,5.7-5.4c2.5-0.9,4.6-2.2,6.7-3.8
		c0.8-0.7,1-2.4,2.5-2.1c1.6,0.5,1.1,2.2,1.4,3.4c0,0-0.1-0.1-0.1-0.1c-0.3,0.3-0.7,0.7-1,1c0,0,0,0,0,0c-0.9-0.1-1.6,0.1-2,1
		c0,0,0,0,0,0C397.5,383.6,395,384,394.9,387.2L394.9,387.2z"/>
	<path class="st2" d="M341.8,390c-2.4-1.2-5.4-1.6-6.2-4.9c2.6,0.1,4.6,1.7,6.8,2.9C344.4,389.1,343.2,389.7,341.8,390z"/>
	<path class="st4" d="M358.6,375.4c-2.2,0.9-3.4,0.8-4.8,0.4C355,374.5,356.4,375.2,358.6,375.4z"/>
	<path class="st2" d="M341.1,380.1c0.5,0.3,1.1,0.5,1.1,0.8c0.2,0.8-0.5,1.1-1.1,1c-0.3,0-0.8-0.5-0.8-0.8
		C340.3,380.8,340.8,380.5,341.1,380.1z"/>
	<path class="st2" d="M332.9,384.8c0-0.2-0.1-0.4-0.2-0.6c1.8-1.9,2.3-0.1,3,1C334.7,386,333.9,384.7,332.9,384.8z"/>
	<path class="st4" d="M386.8,389.1c-0.8,1-1.8,1.7-3.2,1.6C383.8,388.6,385.5,389.3,386.8,389.1C386.7,389,386.8,389.1,386.8,389.1z
		"/>
	<path class="st4" d="M326.8,337.1c0.7,0.1,1.4,0.3,2.2,0.4c-0.1,0.1-0.1,0.3-0.2,0.4C327.8,338.1,327.2,337.8,326.8,337.1
		L326.8,337.1z"/>
	<path class="st4" d="M405.5,376.3c-0.1,0-0.3,0.1-0.3,0.1c-0.1-0.1-0.1-0.2-0.1-0.3c0.2,0,0.4-0.1,0.5-0.1
		C405.5,376.1,405.5,376.2,405.5,376.3z"/>
	<path class="st2" d="M324.8,367.1c-0.1,0.1-0.1,0.3-0.2,0.4C324.6,367.4,324.7,367.2,324.8,367.1
		C324.8,367.1,324.8,367.1,324.8,367.1z"/>
	<path class="st9" d="M442.8,381.1c0.3,0,0.6-0.1,0.9,0C443.4,381.9,443.1,381.8,442.8,381.1z"/>
	<path class="st6" d="M344,268.2c-2.3-5.3-5.2-9.9-11.4-11.2c2-1.4,4.1-2.8,6.1-4.2c-0.1,3,1.5,5.3,3.6,7.2c2.5,2.2,4.3,4.9,5.4,8
		C346.5,268.2,345.2,268.2,344,268.2z"/>
	<path class="st1" d="M326.6,260.9c-0.9,0-1.7,0.1-2.6,0.1c-1.6-0.5-4.4,0.8-4-2.7c0.3-2.2,2.2-2.1,3.7-2.5
		C324.1,257.9,327.4,258.3,326.6,260.9z"/>
	<path class="st1" d="M342.6,245.2c2.4-0.2,4.7-0.3,7.1-0.5c0.9,0.5,1,1.4,1.1,2.2c-0.2,0.1-0.4,0.1-0.5,0.2
		C347.4,248,344.5,248.4,342.6,245.2z"/>
	<path class="st9" d="M345.7,251.3c0,0.6,2.3,1,0.4,1.7c-1.3,0.4-3.2,0.6-4.4-1C343.1,251.8,344.4,251.6,345.7,251.3z"/>
	<path class="st5" d="M394.8,387.2c0.2-3.1,2.6-3.5,5-4C399.1,385.7,397,386.4,394.8,387.2z"/>
	<path class="st5" d="M399.8,383.1c0.4-0.9,1.1-1.1,2-1C401.4,383.1,400.8,383.4,399.8,383.1z"/>
	<path class="st5" d="M401.8,382.1c0.3-0.3,0.7-0.7,1-1C402.5,381.5,402.1,381.8,401.8,382.1z"/>
	<path class="st5" d="M327.8,333.1c2-3.5,5.5-2.4,8.5-2.9c-0.4,3.7,3.1,3.1,4.9,4.5c0.2,0.2,0.2,1,0,1.3c-0.7,1-1.5,1-2.6,0.5
		C335.1,335,331.6,333.4,327.8,333.1C327.8,333.1,327.8,333.1,327.8,333.1z"/>
	<path class="st5" d="M367.8,378.1c0.1-0.1,0.2-0.3,0.2-0.4C367.9,377.8,367.8,377.9,367.8,378.1
		C367.8,378.1,367.8,378.1,367.8,378.1z"/>
	<path class="st1" d="M310.8,266.1c0,0.3-0.1,0.6-0.1,0.8c0,0-0.4,0-0.4,0s-0.4-0.1-0.4-0.1C310.3,266.6,310.5,266.3,310.8,266.1z"
		/>
	<path class="st10" d="M349.5,271.1c-5.4,0-4.5,5.1-5.5,7.9c-1.3,3.7-3.2,6.2-6.3,8.1c0-0.8-0.3-2,0.1-2.4c3.4-3.9,3.5-9.2,5.8-13.6
		c0.8-0.2,0.8-0.6,0.2-1c0-0.6,0-1.2,0-1.7c1.2,0,2.5-0.1,3.7-0.1c0.7,0.7,1.3,1.4,2,2C349.7,270.5,349.6,270.8,349.5,271.1z"/>
	<path class="st10" d="M377.6,318.1c-4,0-5.2-2.8-5.8-6C375.4,312.5,375.9,315.9,377.6,318.1z"/>
	<path class="st6" d="M362.5,294.3c-1.2-0.3-1.8-1-1.6-2.3C362.3,292.2,362.9,292.9,362.5,294.3z"/>
	<path class="st11" d="M549.8,296.1c0.1-0.1,0.1-0.3,0.2-0.4C549.9,295.8,549.8,295.9,549.8,296.1
		C549.8,296.1,549.8,296.1,549.8,296.1z"/>
	<path class="st5" d="M410.7,350.3c-2.4-0.3-4.7,0.9-6.8-2.4c-1.2-2-5.2,1.4-8,2.1c-0.7-2.9,1.5-4.6,2.8-6.7c1.3-0.8,2-2.1,2.8-5.1
		C402.7,344.9,407,347.3,410.7,350.3z"/>
	<path class="st1" d="M395.6,350.2c0.1,0.8,0,1.5-0.8,1.9c-1.3,0.6-1.1,1.8-1.1,2.9c0,0,0,0,0,0c-1-2.2-2.6-3.6-5.6-3.1
		C390.4,348.4,393.2,350.6,395.6,350.2z"/>
	<path class="st8" d="M409.8,361.2c-0.9-0.1-2,0.1-2.6-0.8c-0.1-0.2,0.3-1,0.5-1.1C409.3,358.8,409.6,359.9,409.8,361.2
		C409.8,361.1,409.8,361.2,409.8,361.2z"/>
	<path class="st8" d="M393.7,355c0-1.1-0.3-2.3,1.1-2.9C395.1,353.3,396.4,354.9,393.7,355z"/>
	<path class="st8" d="M409.3,357.4c-0.2-0.2-0.5-0.5-0.5-0.7c0.1-0.3,0.3-0.6,0.5-0.9c0.1,0.3,0.3,0.5,0.3,0.8
		C409.7,356.8,409.4,357.1,409.3,357.4z"/>
	<path class="st5" d="M325.8,362.1c1.3,0,2,0.7,2,2C326.5,364.1,325.8,363.4,325.8,362.1z"/>
	<path class="st5" d="M324.8,360.1c0.8,0.4,1,1.2,1,2C324.9,361.7,324.8,360.9,324.8,360.1z"/>
	<path class="st5" d="M329.7,366.1c0.9,0,1.6,0.2,2,1C330.9,367.1,330.2,366.9,329.7,366.1z"/>
	<path class="st5" d="M327.8,364.1c0.3,0.3,0.7,0.7,1,1C328.4,364.7,328.1,364.4,327.8,364.1z"/>
	<path class="st5" d="M328.8,365.1c0.3,0.3,0.7,0.7,1,1C329.4,365.7,329.1,365.4,328.8,365.1z"/>
	<path class="st6" d="M343.9,270c0.6,0.5,0.5,0.9-0.2,1C343.8,270.7,343.9,270.3,343.9,270z"/>
	<g>
		<path class="st12" d="M409,156.2c2.9-0.4,5.7-0.9,8.6-1.3c-0.2,0.8-0.5,1.5-0.7,2.3c-0.1,0.3-0.1,0.5,0,0.8c0,0,0,0,0,0
			C414.1,157.7,411.2,158.4,409,156.2z"/>
		<path class="st7" d="M416.8,157.9c-0.1-0.3-0.1-0.5,0-0.8c0.3,0.3,0.6,0.6,0.9,0.9c0,0-0.4,0-0.4,0L416.8,157.9z"/>
		<path class="st1" d="M496.3,132.9c-0.4-2.9-0.7-5.8-4-7.2c-3.6-4.9-9.1-6.8-14.5-8.9c-4-0.7-8-0.1-11.9,0.3
			c-2.5,1.6-6,0.3-8.1,2.8c-7.7,2.5-15.5,4.6-20.9,11.4c-0.6,0.8-2,1.1-3,1.6c-1.7,1.7-3.3,3.4-5,5c-4.2,4.2-6.1,10.3-11,14l0,0
			c-0.1,0.9-0.3,1.9-0.4,2.8c-0.2,0.8-0.5,1.5-0.7,2.3c0.3,0.3,0.6,0.6,0.9,0.9c3.7-0.2,7.2-1,10.7-2c-0.5,0-1-0.1-1.5-0.2
			c0.5,0.1,0.9,0.1,1.5,0.2c2.9-0.1,5.8,1.1,8.6-0.4c-0.1-2.1,0.9-3.9,2-5.6c1.7-4.4,4.8-7.6,8.9-9.9c4.9-3.2,10-5.4,15.9-3.1
			c1.3,0.5,2.7,0.9,4,1.4c2.5,1.9,5,3.7,5.5,7.3c0.1,1.1,1,2.7,2.6,3.2c3.4,3.5,7.1,4.1,11.2,1.1c0,0,0,0,0,0c4.1-3.1,7-7,8.6-11.9
			c0.3-0.4,0.7-0.8,1-1.2C496.7,135.5,497.2,134.1,496.3,132.9z M476.9,144.8c-0.1-0.6,0-1.2,0.1-1.8
			C476.9,143.6,476.8,144.2,476.9,144.8c0.5-0.1,0.9-0.3,1.2-0.6C477.8,144.5,477.4,144.7,476.9,144.8z M481.6,136.6
			c0.3,0.3,0.5,0.6,0.8,0.8C482,137.2,481.8,136.9,481.6,136.6z M482.4,137.5c0.1,0.1,0.1,0.1,0.2,0.1
			C482.5,137.6,482.4,137.5,482.4,137.5z M482.8,137.8c0.2,0.1,0.4,0.1,0.6,0.2C483.2,137.9,483,137.9,482.8,137.8z M483.8,138
			C483.8,138,483.8,138,483.8,138L483.8,138c-0.2,0-0.3,0-0.4,0C483.5,138,483.7,138,483.8,138c0-0.1,0-0.2,0-0.3
			C483.9,137.7,483.8,137.9,483.8,138z M481.1,136.1C481.1,136.1,481.1,136.1,481.1,136.1c1.3-3.4,3.2-6.2,6.2-7.7
			C484.3,129.9,482.5,132.7,481.1,136.1z"/>
		<path class="st7" d="M419.9,162.7c-1.3,0.2-2-0.4-2.2-1.7C419.1,160.9,419.7,161.5,419.9,162.7z"/>
		<path class="st12" d="M410,159.8c1,0.2,2.9-0.4,3,0.7c0,1.7-1.9,1.2-3.1,1.4C409.9,161.2,409.9,160.5,410,159.8z"/>
		<g>
			<path class="st12" d="M495,182c-0.7-2.6-1.5-5.2-2.2-7.8c-0.3-0.1-0.6-0.2-0.9-0.3c-0.3-0.3-0.7-0.7-1-1c0,0,0,0,0,0
				c-0.3-0.4-0.7-0.7-1-1.1c0,0,0.1,0,0.1,0c0.6-2.3-1.9-3.1-2.4-4.8c-2.9-2.2-6.3-3.5-9.7-4.8c-3.5,0.2-6.8-0.7-10.1-1.7
				c-0.5-0.1-1-0.3-1.4-0.4c-1,0-2,0-3.1,0c-2.7,1.7-6.1,0.8-9,2.9c-1.1,0.8-5.1-2.4-7.8-3.8c-3.2-1.2-6.3-2.4-9.5-3.6
				c-2.8,1.5-5.7,0.4-8.6,0.4c-3.5,1-7,1.9-10.7,2l-0.4,0l-0.4-0.1l0,0c-2.7-0.2-5.6,0.5-7.8-1.8c-1.4,0.4-2.9,0.9-4.3,1.3
				c-0.6-0.2-1.2-0.4-1.9-0.5c0,0,0.1,0.3,0.1,0.3c-0.9-0.5-1.7-0.5-2.3,0.4c-0.9,0-1.8,0-2.7,0.1c-0.5-0.3-1-0.5-1.5-0.6
				c-5.5-2.1-10.7-4.9-16.8-5c-0.3-0.1-0.6-0.2-1-0.2c0-0.3,0-0.6-0.1-1c-0.6-0.1-1.1-0.2-1.7-0.3c-0.7,0.1-1.4,0.2-2.1,0.3
				c0,0,0.1-0.3,0.1-0.3c-5.7-0.7-11.4-1.6-16.1,3c-1.1-0.3-1.8,0.3-2.5,1.1c-1.4-0.1-1.9,1-2.8,1.7c-8.3,6.6-12.7,15.8-16.3,25.5
				c-1,3.9-2,7.9-3,11.8c-0.5,6-1,12-1.5,17.9c0.3,5,0.5,10,0.8,15.1c0.1,2.5,0.3,5,0.4,7.5c1.2,1.3,2.1,2.9,4.2,2.7c0,0,0,0,0,0
				c0.5,0.4,1.1,0.8,1.6,1.2c0.9,2.2,3,2.8,4.9,3.7c2.4-0.2,4.7-0.3,7.1-0.5c0.9,0.5,1,1.4,1.1,2.2c2.9,0.8,5.3,2.6,7.9,4.1
				c0.7,1.5,3.4,1.6,3.1,3.9c1.1-0.5,1.6,0.4,2.3,1c0.6,0.5,1.1,1.1,1.7,1.6c1.9,2,4.5,3.4,4.9,6.4c-0.1,2.2,2.4,1.7,3.1,3
				c0,0,0,0,0,0c0.1,0.6,0.1,1.2,0.2,1.8c1.8,0.4,2.2,1.9,2.7,3.4c1.9,4.4,3.9,8.9,6.6,12.9c2.9-1.4,3.9-3.9,4.2-6.4
				c-0.3,2.5-1.3,5-4.2,6.4c2.4,5.1,6.1,9.4,9.5,13.8c4.1,3.3,7.4,7.6,12.2,10.2c1-5.5-0.8-10.7-1.4-16c-1.4-11.8,0.4-23,3.7-34.1
				c0.3-0.9,0.4-1.9,0.6-2.9c-0.9-3-1.7-6.1-2.6-9.1c0.9,3,1.7,6,2.6,9.1c1.6-2.7,3.2-5.5,4.8-8.2c7.6-14.8,18.4-26.5,33.5-33.9
				c2.2-2,5-2.9,7.6-4.1c-0.1-0.3-0.1-0.7-0.3-0.9c0.2,0.2,0.2,0.6,0.3,0.9c2.7-0.9,5.5-1.8,8.2-2.7c0,0,0,0,0,0
				c1.7-0.3,3.5,0.2,5-1.1c0,0,0,0,0,0c4.1,2.2,7.5-1.2,11.2-1.6c0.8,0,1.5,0,2.3,0c0,0,0,0,0,0c3.7,0.4,7.4,0.9,11.1,1.3
				c0.2-1,0.5-2,0.7-3c0.2-1,0.3-2,0.5-3c0.1-0.7,0.1-1.3,0.2-2c0.2-0.4,0.4-0.8,0.7-1.3C495.5,189.8,495.2,185.9,495,182z
				 M356.8,182.9c0,0.6-0.1,1.3-0.1,1.9C356.7,184.2,356.7,183.5,356.8,182.9c0-0.8,0.2-1.5,0.9-2
				C356.9,181.3,356.7,182.1,356.8,182.9z M364.7,179.7c-0.6,2.1-1.3,4.1-1.9,6.2c-0.8,1.5-1.1,3.1-1.2,4.7c0.1-1.6,0.4-3.2,1.2-4.7
				C363.4,183.8,364,181.8,364.7,179.7c0.1-0.6,0.2-1.1,0.6-1.5C364.9,178.6,364.7,179.1,364.7,179.7z M367.1,173
				C367.1,173,367.1,173,367.1,173c0.7-2,1.6-4.1,2.1-6.1C368.7,168.9,367.7,171,367.1,173z M372.6,167.8c-1.9,0-2.5,1.5-3.2,2.9
				C370.1,169.3,370.7,167.8,372.6,167.8L372.6,167.8C372.7,167.8,372.6,167.8,372.6,167.8z M377.2,159.8c0.5-0.3,1.1-0.6,1.6-0.8h0
				C378.2,159.2,377.7,159.5,377.2,159.8z M387.7,163C387.7,163,387.7,163,387.7,163c0.3-1.9-1.3-2.4-2.5-3.4
				C386.4,160.5,388,161.1,387.7,163z M403.8,186.9c-0.4,0-0.7,0-1.1,0C403.1,186.9,403.4,186.9,403.8,186.9c0,1,0.1,1.9,0.1,2.9
				C403.9,188.9,403.8,187.9,403.8,186.9z M402.8,183.9c0,0,0-0.1,0-0.1C402.8,183.8,402.8,183.9,402.8,183.9c0.5,0.1,1,0.2,1.3,0.4
				C403.8,184.2,403.4,184,402.8,183.9z M409.8,161.9c0-0.7,0.1-1.4,0.1-2.1c1,0.2,2.9-0.4,3,0.7C413,162.3,411.1,161.8,409.8,161.9
				z M420,162.8C420,162.8,419.9,162.7,420,162.8c-1.4,0.1-2.1-0.5-2.3-1.7C419.1,160.9,419.7,161.5,420,162.8L420,162.8
				c2.6,0.4,3.1,2.5,3.7,4.4C423.1,165.3,422.6,163.3,420,162.8z M424.2,169.7c1.6,2.3,1.4,10.1-0.3,14.5
				C425.6,179.8,425.8,172,424.2,169.7c-0.1-0.6-0.1-1.1-0.2-1.7c2.3-1.9,2-3.4,1-4.8c1,1.4,1.3,2.9-1,4.8
				C424.1,168.6,424.2,169.2,424.2,169.7z M454.8,167.9c-0.6,0-1.3,0-1.9,0c-1.6-1.1-3.1-1.2-4.4-0.8c1.3-0.4,2.8-0.3,4.4,0.8
				C453.5,167.8,454.1,167.9,454.8,167.9c0.3-0.5,0.6-0.6,0.8-0.3C455.3,167.3,455.1,167.4,454.8,167.9z M485.8,168.9
				c-2.8,0.1-5-1.1-7-3C481.7,165.6,484.2,166.3,485.8,168.9z M469.3,165.9c0.8-0.4,1.6-0.7,2.4-0.9
				C470.9,165.2,470.1,165.5,469.3,165.9c-0.3,0.1-0.5,0.3-0.7,0.6C468.8,166.2,469,166,469.3,165.9z M467.3,166.6l0.1,0
				C467.5,166.7,467.3,166.6,467.3,166.6c-0.7-0.6-1.4-0.6-2.1-0.5C465.9,166,466.6,166,467.3,166.6z M464.1,170.8
				C464.1,170.8,464.1,170.8,464.1,170.8c-0.3,0.3-0.6,0.4-0.8,0.4C463.5,171.2,463.8,171.1,464.1,170.8z M463.8,197.9
				c0.2-0.5,0.4-1,0.6-1.6C464.2,196.9,464,197.4,463.8,197.9c-0.4,0.1-0.8,0.1-1.1,0.2C463,198,463.4,198,463.8,197.9z
				 M463.8,203.8c-0.7-1.4,0.9-2.9,0.8-4.4C464.7,200.9,463.1,202.4,463.8,203.8z M466.3,178.8c-0.4,0.4-0.8,0.7-1.2,1.1
				c-1.5-0.8-1.2-1.5,0.2-2.1c0-0.6,0-1.2,0-1.9c1.9-1.4,1.6-2.4,0.9-3.2c0.7,0.8,1,1.8-0.9,3.2c0,0.6,0,1.2,0,1.9
				C465.6,178.2,466,178.5,466.3,178.8c0.5,0.2,0.9,0.4,1.2,0.7C467.2,179.3,466.8,179,466.3,178.8z M467.7,168.2
				c-0.2,0.1-0.3,0.1-0.5,0.1C467.3,168.3,467.5,168.3,467.7,168.2c1,0,2.1,0,3.1,0.1c4.4,1.1,6.4,1.8,7.3,4c-0.9-2.2-2.9-2.9-7.3-4
				C469.7,168.3,468.7,168.2,467.7,168.2z M477.9,191.9c-1.4-1.3-3.3-1.5-5-2c-0.8-0.8-1.6-1-2.6-1c0.9,0,1.8,0.1,2.6,1
				C474.6,190.3,476.5,190.6,477.9,191.9c1.6,0.1,2.8-0.4,3.8-1.2C480.7,191.4,479.5,191.9,477.9,191.9z M486.4,186.7
				c0.5,0.1,0.9,0.2,1.4,0.3c0,0,0,0,0,0C487.4,186.9,486.9,186.8,486.4,186.7c-0.5,0-1,0-1.5,0c-2.8-1.2-4.9-2.7-5.8-5.4
				c0.9,2.6,3,4.2,5.8,5.4C485.4,186.6,485.9,186.6,486.4,186.7c2.1-2.7,3.3-3.7,4.6-3.2C489.7,182.9,488.5,183.9,486.4,186.7z
				 M494.8,193.9c-0.5-0.7-0.7-1.4-0.7-2.2C494.1,192.5,494.3,193.2,494.8,193.9c0.2,0,0.3,0,0.5,0
				C495.1,193.9,494.9,193.9,494.8,193.9z"/>
			<path class="st12" d="M363.9,251.9C363.9,251.9,363.9,251.9,363.9,251.9C363.9,251.9,363.9,251.9,363.9,251.9L363.9,251.9z"/>
		</g>
	</g>
	<path class="st10" d="M438.8,346.1c-0.1,0.1-0.2,0.3-0.3,0.4C438.6,346.4,438.7,346.2,438.8,346.1
		C438.7,346,438.8,346.1,438.8,346.1z"/>
	<g>
		<path class="st13" d="M575.7,300.5c-1.9-1.2-3.1,1.1-4.6,1.9c-0.8,0.5-1.6,1.1-2.5,1.6c0,0.7,0.1,1.4,0.1,2.1h0
			c0-0.7-0.1-1.4-0.1-2.1c-1,0.4-1.9,0.8-2.9,1.2c-1.2,1.9-2.9,2.8-5,2.9c-0.5,0.8-1.2,0.9-2.1,0.9c-1,0.6-2,1.2-3.1,1.8l-2.9,1.1
			c-6.1,4.1-13.3,6-19.9,9.2c0.2,0.2,0.3,0.4,0.5,0.5c-0.2-0.1-0.3-0.3-0.5-0.5c-1.7,0.4-3.5,0.9-5.2,1.3c0,0,0,0,0,0
			c-10.4,3.3-21.1,5.2-31.8,6.8c-10.7,1.3-21.4,1.1-32.1,0.6c-2.3-0.3-4.5-0.6-6.8-1c-11.5-0.8-22.2-4.6-32.6-9.1
			c-2.5-1.1-5.5-1.4-7.4-3.7c-0.4-0.3-0.7-0.7-1.1-1l0,0c-4.2-0.9-7.4-3.6-10.8-5.8c-4.8-2.6-8.1-6.9-12.2-10.2
			c-3.4-4.4-7.1-8.7-9.5-13.8c-2.7-4.1-4.6-8.5-6.6-12.9c-0.5-1.5-0.8-3-2.7-3.4c0.3,1.1,0.5,2.2,0.8,3.2c4.4,10.1,8.9,20.1,16.9,28
			c0.4,1.3,1.3,2.1,2.3,2.8c-1-0.7-2-1.5-2.3-2.8c-7.9-7.8-12.4-17.7-16.7-27.6c-0.3-1-0.7-2.6-0.9-3.6c-0.1-0.6-0.1-1.2-0.2-1.9
			c-0.7-1.4-3.2-0.9-3.1-3c-0.4-3.1-3.1-4.5-4.9-6.4c-0.6-0.5-1.1-1.1-1.7-1.6c-0.6-0.6-1.2-1.5-2.3-1c0.3-2.3-2.4-2.4-3.1-3.9
			c-2.6-1.5-4.9-3.3-7.9-4.1c-0.2,0.1-0.4,0.1-0.5,0.2c0.1,0.9,0.2,1.9,0.3,2.8c-1.6,0.4-3.2,0.9-4.9,1.3c0,0.6,2.3,1,0.4,1.7
			c-1.3,0.4-3.2,0.6-4.4-1c-1.2-0.2-2.2-0.1-3,0.9c-0.1,3,1.5,5.3,3.6,7.2c2.2,2,3.9,4.3,5,7c0.7,0.9,1.7,2.2,2.4,3.1l0,0
			c0,0.3,0,0.6-0.1,1c-5.4,0-4.5,5.1-5.5,7.9c-1.3,3.7-3.2,6.2-6.3,8.1c-0.6,0.4-1.3,0.7-1.9,1.1c-0.3,0.1-0.7,0.1-1,0.2
			c0.7-0.2,1.4-0.3,2.1-0.4c0.3-0.3,0.5-0.5,0.8-0.8c0-0.8-0.3-2,0.1-2.5c3.4-3.9,3.5-9.1,5.7-13.4c0.1-0.3,0.2-0.9,0.3-1.2
			c0-0.6,0-1.2,0-1.7c-2.3-5.3-5.2-9.9-11.4-11.1c-2.7,0.4-2.6,5.2-6.5,3.7c-0.8,0.2-1.4,0.3-2.3,0.4c-3.5,3.7-8.6,3.5-13,4.9
			c0,0.3-0.1,0.5-0.1,0.8l-0.4,0c0,0-0.4-0.1-0.4-0.1c-2.1,1.1-4.2,2.2-6.3,3.3c-0.9,1.6-2.1,3-2,4.9c-0.5,5.3,2,10,3,15
			c0,1.9,0.9,3.5,1.7,5.1c4.4,8.8,10.6,16.4,15.6,24.8c0.3,0,0.5,0,0.8,0c-0.1-2.1,2.4-2.1,2.8-3.7c-4.3-4.8-8.4-9.6-11.9-15.2
			c3.5,5.5,7.7,10.4,11.9,15.2c2.7,2.4,4.9,4.9,4.1,8.9c1-0.1,2-0.1,3-0.2c1,0,2.1,0.1,3.1,0.1c5.4,0.8,10.6,2.1,15.5,4.4
			c14.2,6.6,28.4,12.8,44.3,14.5c1-0.2,2-0.4,3-0.7c1.2-0.8,1.9-2.1,2.7-4.9c0,0,0,0,0,0c0,0,0,0,0,0c0,0,0,0,0,0
			c0,0,0.1,0.1,0.1,0.1c0,0,0,0,0,0c0,0,0,0,0,0c0,0,0,0,0,0c1.3,6.5,5.5,8.9,9.1,11.9c5.1,3,3.3,7.2,2.1,11.3
			c0.1,0.7,0.2,1.6,0.3,2.3c0.4,0.7,0.8,1.4,1.8,3.1c-0.6-4.5,1-7.3,4.5-8.1c2-0.5,0.9,2.3,1.9,3.2c0.8-3.4,2.5-0.7,3.8-0.5
			c0.7,0.1,0.2,2.2,1.9,1.2c7.5-4.1,15.3-0.3,23-0.7c1.9-0.1,3.9-0.2,5.8-0.2c0.6,1,1.3,1,2,0l0.1,0c0.3-0.3,0.6-0.6,1-1l0,0
			c0-1,0.1-1.6,0.5-2c-0.4,0.4-0.5,1.1-0.5,2c4.9,1.1,10,0.5,14.8,2l0.2-0.1c0.8,0.1,1.5,0,1.9-0.8c5.7,0.2,11-2,16.4-2.6
			c10.8-1.3,20.1-6.3,29.8-10.1c8.6-3.3,16.3-8.3,24.4-12.7c1.4-3.9,5.7-5.1,7.5-8.5c3.4-2.2,5.3-6.3,9.4-7.6
			c0.1-0.5,0.2-1.1,0.3-1.6c0.4,0,0.7,0,1.1,0c3.1-3.5,5.4-7.6,7-12c0.6-0.7,1.1-1.5,1.9-2.5c0.1,1,0.2,1.8,0.2,2.6
			c1.4,0,1.6-1.1,2-2.1C575.3,303.5,577.3,301.5,575.7,300.5z M316.8,296C316.8,296,316.8,296,316.8,296c1.1,1.3,2.1,1.3,3.1,0.8
			C318.9,297.3,317.9,297.3,316.8,296z M362.5,294.3c-1.3-0.3-1.9-1.1-1.5-2.5c-1-1.8-1.6-3-2.6-4.8c-1.6-0.6-2.6-1.8-3.2-3.1
			c0.7,1.4,1.7,2.7,3.6,3.2c0.7,1.6,1.5,3.2,2.2,4.9C362.3,292.2,362.9,292.9,362.5,294.3z M367.8,264.1
			C367.8,264.1,367.8,264.1,367.8,264.1C367.8,264.1,367.8,264.1,367.8,264.1c0,0.3,0,0.7,0,1C367.8,264.7,367.8,264.4,367.8,264.1
			c-0.6,0-1.1-0.1-1.4-0.4C366.7,263.9,367.2,264.1,367.8,264.1z M366.9,306c-1-2.4-2.3-4.7-3.2-7.1
			C364.6,301.3,365.8,303.6,366.9,306c0.9,0.1,1.5,0.4,1.8,1.2C368.4,306.5,367.8,306.1,366.9,306z M371.8,312.1
			C371.8,312.1,371.8,312.1,371.8,312.1C371.8,312.1,371.8,312.1,371.8,312.1c3.5,0.4,4.1,3.8,5.8,6
			C373.6,318.1,372.5,315.3,371.8,312.1z M399.7,334.2c-3.2-0.7-6.1-2.1-8.6-4C393.7,332.1,396.5,333.5,399.7,334.2
			c0,0.3,0,0.5,0,0.7C399.8,334.7,399.7,334.5,399.7,334.2z M433.2,345.3c1.8,0.5,3.6,0.7,5.5,0.7l0,0
			C436.8,346,435,345.8,433.2,345.3z M438.5,346.5c0.1-0.2,0.1-0.3,0.2-0.5l0.1,0.1C438.7,346.3,438.6,346.4,438.5,346.5z
			 M527.8,324.1c0.6,0.3,1.3,0.6,1.9,1C529.1,324.7,528.4,324.4,527.8,324.1L527.8,324.1z M511.7,339.3c-0.3,0.2-0.6,0.5-0.9,0.7
			C511.2,339.8,511.5,339.5,511.7,339.3C511.7,339.3,511.7,339.3,511.7,339.3z M513.8,338.2c-0.6,0-1.2,0-1.9,0.1
			c0,0.3-0.1,0.5-0.1,0.8c0-0.3,0.1-0.5,0.1-0.8C512.5,338.2,513.2,338.2,513.8,338.2c3.4-2,6.9-3.5,10.6-4.9
			C520.7,334.6,517.1,336.2,513.8,338.2C513.8,338.2,513.8,338.2,513.8,338.2z M515.8,339.1c0.2,0.2,0.4,0.4,0.7,0.5
			C516.3,339.5,516,339.3,515.8,339.1c6.2-3.4,13-5.2,19.4-7.9C528.8,333.9,522,335.8,515.8,339.1z M537.7,334.1L537.7,334.1
			c1.5-0.9,3-1.8,4.5-2.6C540.8,332.3,539.3,333.2,537.7,334.1z M551.6,318.9c-0.1,0.2-0.3,0.4-0.4,0.6
			C551.3,319.3,551.4,319.1,551.6,318.9c0.2-1.2,0.9-1.8,2.1-2C553.8,318.4,553.1,319.1,551.6,318.9z"/>
		<path class="st13" d="M525.4,356.5c0.2,0.1,0.4,0.2,0.6,0.3c0-0.1,0.1-0.3,0.1-0.3c-0.1-0.1-0.2-0.1-0.3-0.2
			C525.6,356.4,525.5,356.5,525.4,356.5z"/>
		<path class="st13" d="M515.7,303.1c-0.4,0.2-1.3-0.4-1,0.7C515.1,303.6,515.4,303.3,515.7,303.1z"/>
		<path class="st13" d="M515.8,303.1C515.7,303.1,515.7,303.1,515.8,303.1C515.7,303.1,515.8,303.1,515.8,303.1
			C515.8,303.1,515.8,303.1,515.8,303.1z"/>
		<path class="st13" d="M310.8,266.1C310.8,266.1,310.8,266.1,310.8,266.1C310.8,266.1,310.8,266.1,310.8,266.1
			C310.8,266.1,310.8,266.1,310.8,266.1z"/>
		<path class="st13" d="M465.8,325.1c-0.1-0.1-0.3-0.3-0.4-0.4C465.5,324.8,465.6,324.9,465.8,325.1
			C465.7,325.1,465.8,325.1,465.8,325.1z"/>
	</g>
	<path class="st14" d="M415.8,315c0.5,0.2,1.8-0.5,1.1,1C416.5,315.7,416.2,315.4,415.8,315z"/>
	<g>
		<path class="st11" d="M565.3,283.6L565.3,283.6c-0.7-3.9,0.3-8-1.2-11.8c-1.1-4.9-2.2-9.7-3.3-14.6c-2.9-4.7-5-9.7-6.8-14.8
			c-3.1-2.9-3.9-7.6-7.5-10.2c0-0.3-0.1-0.5-0.3-0.7c-2,0.2-4-2.5-5.9,0.1c0,0,0,0,0,0c2-2.7,4.1,0.4,6.2-0.1
			c-0.1-1.7-0.1-1.6-0.2-3.3c-5.3-1.1-5-4.5-5.1-7.8c0.9-2.6,1.9-5.2,2.8-7.8c-0.2-1.6,0.7-3.4-0.6-4.9c-0.1-1.3-0.3-2.6-0.4-4
			c-0.3-2.2,1.7-3.8,1.8-5.9c-1-1.9,1.3-1.7,1.7-2.7l0-0.1c1.1-0.2,1.7-0.9,1.8-2c0.6-1.3,1.3-2.6,1.6-4c0.3-1.1,2-2.4,0.1-3.3
			c-1.2-0.6-1.7,1.1-2.5,1.8c-2.5,2.2-4.2,5.4-8.1,5.3c-1.2,0.4-2.5,0.5-3,2c-3.6,1.8-7.1,3.7-9.8,6.9c2,1.6,3.5,1.3,5,0.5
			c-1.4,0.8-3,1.1-5-0.5c-3.4,1.3-5.9,4-8.9,5.9c-2.6-0.4-5.2-0.7-7.8-1.1c-0.3,0-0.7,0.1-1,0.1l0-0.1c0,0,0,0,0,0
			c-3.5-2-7.3-2.4-11.3-1.5c-0.2-0.1-0.4-0.2-0.6-0.3c-0.1-0.3-0.2-0.7-0.3-1c-0.3,0-0.5-0.1-0.8-0.1c-3.6-0.4-7.3-0.9-10.9-1.3
			c-0.7,0-1.5,0-2.2,0c-3.7,0.4-7,3.7-11.1,1.6c-1.5,1.2-3.3,0.7-4.9,1c-2.7,0.9-5.4,1.8-8.1,2.7c-2.6,1.2-5.3,2-7.5,4c0,0,0,0,0,0
			c-14.9,7.3-25.4,18.9-33,33.4c0,0,0,0,0,0c-1.6,2.7-3.2,5.4-4.8,8.1c-0.2,1-0.3,1.9-0.6,2.9c-3.2,11-5,22-3.7,33.6
			c0.6,5.2,2.3,10.4,1.4,15.8c3.4,2.1,6.6,4.8,10.7,5.7l0,0c0.5,0.2,1.7-0.5,1.1,1c1.9,2.3,4.8,2.6,7.3,3.6
			c10.3,4.5,20.8,8.2,32.1,9c2.2,0.3,4.4,0.6,6.7,1c0,0,0,0,0,0c10.6,0.5,21.1,0.6,31.6-0.6c10.6-1.5,21.1-3.5,31.3-6.7
			c1.7-0.4,3.4-0.8,5.1-1.3c6.5-3.1,13.5-5,19.6-9l2.9-1.1c1-0.6,2-1.2,3-1.7c0.8,0,1.6-0.1,2-0.9c1.4-6,1.8-12.1,1.9-18.3
			C565.8,285.3,565.5,284.3,565.3,283.6z M414.5,276.5C414.5,276.5,414.5,276.5,414.5,276.5c-0.1-4.3,0.5-8.5,0.9-12.7
			C414.9,268,414.4,272.3,414.5,276.5z M415.8,272.8c0.5-0.7,1.2-1.4,1.9-1.9C417,271.4,416.3,272.1,415.8,272.8z M470.5,321
			c-0.1-0.1-0.3-0.3-0.4-0.4C470.2,320.7,470.4,320.8,470.5,321L470.5,321z M498.1,289c0.5-0.5,1-0.7,1.9-0.5c0,0,0,0,0,0
			C499.1,288.4,498.5,288.5,498.1,289z M499.6,290.2c0,0.2,0.1,0.4,0.3,0.6C499.8,290.6,499.7,290.4,499.6,290.2z M518.7,300
			c-0.3-1.1,0.6-0.5,1-0.7C519.3,299.6,519,299.8,518.7,300z M526.5,211.9c0-0.1,0-0.1,0-0.2h0C526.5,211.7,526.5,211.8,526.5,211.9
			z M530.7,222.4c-0.2-0.2-0.4-0.4-0.6-0.6C530.3,222,530.5,222.2,530.7,222.4c1.1,0,2.1,0.1,2.5,1
			C532.8,222.5,531.8,222.4,530.7,222.4z M536.5,226.4c-0.6,0-1.2-0.1-1.8-0.1c-0.4-0.6-0.8-1.2-1.2-1.8c0.4,0.6,0.8,1.2,1.2,1.8
			C535.3,226.4,535.9,226.4,536.5,226.4c-0.1-0.6-0.1-1.3-0.1-1.9C536.4,225.1,536.4,225.8,536.5,226.4c1.1,0.5,1.6,1.4,2.1,2.4
			C538.1,227.8,537.6,226.9,536.5,226.4z M543.3,253c-0.1,0-0.3-0.1-0.4-0.1C543.1,253,543.2,253,543.3,253L543.3,253z M551.3,257.9
			L551.3,257.9c0-0.1,0-0.1-0.1-0.2C551.3,257.8,551.3,257.9,551.3,257.9z M550.6,264.5c0.9-1.1,0.5-3.2,0.8-4.7c0,0,0,0,0,0
			C551.1,261.3,551.4,263.5,550.6,264.5z"/>
		<path class="st11" d="M496.6,200.8c-0.2,1-0.5,1.9-0.7,2.9c0.3,0.1,0.5,0.1,0.8,0.1C496.7,202.8,496.7,201.8,496.6,200.8z"/>
	</g>
</g>
</svg>
